# xmcd CD database file
#
# Track frame offsets:
#	150
#	11729
#	25163
#	40010
#	52277
#	62061
#	79950
#	92832
#	102225
#	109110
#	116519
#	129491
#	143555
#	157822
#
# Disc length: 2259 seconds
#
# Revision: 0
# Processed by: cddbd v1.5PL3 Copyright (c) Steve Scherf et al.
# Submitted via: CDex 1.51
#
DISCID=b408d10e
DTITLE=Jawbone - Dang Blues
DYEAR=1900
DGENRE=Blues
TTITLE0=Ready Or Not
TTITLE1=If It's Rock
TTITLE2=Hi-De-Hi
TTITLE3=4-11-44
TTITLE4=Gasoline
TTITLE5=Jackrabbit
TTITLE6=Hoopti
TTITLE7=And Wine
TTITLE8=You've Got To Move
TTITLE9=My Daddy
TTITLE10=What's Goin On
TTITLE11=Snake Boogie
TTITLE12=I'm A Man
TTITLE13=Walter John
EXTD=
EXTT0=
EXTT1=
EXTT2=
EXTT3=
EXTT4=
EXTT5=
EXTT6=
EXTT7=
EXTT8=
EXTT9=
EXTT10=
EXTT11=
EXTT12=
EXTT13=
PLAYORDER=
